<mxfile host="app.diagrams.net" modified="2023-11-01T02:59:46.933Z" agent="Mozilla/5.0 (Macintosh; Intel Mac OS X 10_15_7) AppleWebKit/537.36 (KHTML, like Gecko) Chrome/117.0.0.0 Safari/537.36" etag="gRhZJ9ISP3EF3kvIam8f" version="22.0.8" type="github" pages="2">
  <diagram name="第 1 页" id="KdyPB1xr6hROSxSkUHUS">
    <mxGraphModel dx="1434" dy="797" grid="0" gridSize="10" guides="1" tooltips="1" connect="1" arrows="1" fold="1" page="1" pageScale="1" pageWidth="3300" pageHeight="4681" math="0" shadow="0">
      <root>
        <mxCell id="0" />
        <mxCell id="1" parent="0" />
        <mxCell id="qUz9v_Lx46Wq200kah7_-18" value="" style="rounded=0;whiteSpace=wrap;html=1;" parent="1" vertex="1">
          <mxGeometry x="730" y="308" width="140" height="582" as="geometry" />
        </mxCell>
        <mxCell id="qUz9v_Lx46Wq200kah7_-13" value="" style="rounded=0;whiteSpace=wrap;html=1;" parent="1" vertex="1">
          <mxGeometry x="60" y="310" width="630" height="580" as="geometry" />
        </mxCell>
        <mxCell id="qUz9v_Lx46Wq200kah7_-6" style="edgeStyle=orthogonalEdgeStyle;rounded=0;orthogonalLoop=1;jettySize=auto;html=1;exitX=1;exitY=0.5;exitDx=0;exitDy=0;entryX=0;entryY=0.5;entryDx=0;entryDy=0;" parent="1" source="qUz9v_Lx46Wq200kah7_-2" target="qUz9v_Lx46Wq200kah7_-3" edge="1">
          <mxGeometry relative="1" as="geometry" />
        </mxCell>
        <mxCell id="qUz9v_Lx46Wq200kah7_-2" value="核心告警" style="rounded=1;whiteSpace=wrap;html=1;fillColor=#ffcc99;strokeColor=#36393d;" parent="1" vertex="1">
          <mxGeometry x="250" y="350" width="120" height="60" as="geometry" />
        </mxCell>
        <mxCell id="qUz9v_Lx46Wq200kah7_-21" style="edgeStyle=orthogonalEdgeStyle;rounded=0;orthogonalLoop=1;jettySize=auto;html=1;exitX=0.75;exitY=1;exitDx=0;exitDy=0;entryX=0.5;entryY=0;entryDx=0;entryDy=0;" parent="1" source="qUz9v_Lx46Wq200kah7_-3" target="qUz9v_Lx46Wq200kah7_-20" edge="1">
          <mxGeometry relative="1" as="geometry">
            <Array as="points">
              <mxPoint x="540" y="410" />
              <mxPoint x="540" y="470" />
              <mxPoint x="610" y="470" />
            </Array>
          </mxGeometry>
        </mxCell>
        <mxCell id="qUz9v_Lx46Wq200kah7_-22" style="edgeStyle=orthogonalEdgeStyle;rounded=0;orthogonalLoop=1;jettySize=auto;html=1;exitX=0.25;exitY=1;exitDx=0;exitDy=0;entryX=0.5;entryY=0;entryDx=0;entryDy=0;" parent="1" source="qUz9v_Lx46Wq200kah7_-3" target="qUz9v_Lx46Wq200kah7_-7" edge="1">
          <mxGeometry relative="1" as="geometry">
            <Array as="points">
              <mxPoint x="540" y="410" />
              <mxPoint x="540" y="470" />
              <mxPoint x="470" y="470" />
            </Array>
          </mxGeometry>
        </mxCell>
        <mxCell id="qUz9v_Lx46Wq200kah7_-3" value="自愈" style="rounded=1;whiteSpace=wrap;html=1;fillColor=#cce5ff;strokeColor=#36393d;" parent="1" vertex="1">
          <mxGeometry x="480" y="350" width="120" height="60" as="geometry" />
        </mxCell>
        <mxCell id="qUz9v_Lx46Wq200kah7_-7" value="手动处理" style="rounded=1;whiteSpace=wrap;html=1;fillColor=#f8cecc;strokeColor=#b85450;" parent="1" vertex="1">
          <mxGeometry x="410" y="530" width="120" height="60" as="geometry" />
        </mxCell>
        <mxCell id="qUz9v_Lx46Wq200kah7_-10" style="edgeStyle=orthogonalEdgeStyle;rounded=0;orthogonalLoop=1;jettySize=auto;html=1;exitX=1;exitY=0.5;exitDx=0;exitDy=0;entryX=0.5;entryY=1;entryDx=0;entryDy=0;" parent="1" source="qUz9v_Lx46Wq200kah7_-9" target="qUz9v_Lx46Wq200kah7_-2" edge="1">
          <mxGeometry relative="1" as="geometry">
            <Array as="points">
              <mxPoint x="190" y="470" />
              <mxPoint x="310" y="470" />
            </Array>
          </mxGeometry>
        </mxCell>
        <mxCell id="qUz9v_Lx46Wq200kah7_-9" value="核心指标" style="rounded=1;whiteSpace=wrap;html=1;fillColor=#ffff88;strokeColor=#36393d;" parent="1" vertex="1">
          <mxGeometry x="70" y="350" width="120" height="380" as="geometry" />
        </mxCell>
        <mxCell id="qUz9v_Lx46Wq200kah7_-14" value="CSI" style="rounded=1;whiteSpace=wrap;html=1;fillColor=#b1ddf0;strokeColor=#10739e;" parent="1" vertex="1">
          <mxGeometry x="740" y="360" width="120" height="60" as="geometry" />
        </mxCell>
        <mxCell id="qUz9v_Lx46Wq200kah7_-15" value="api server" style="rounded=1;whiteSpace=wrap;html=1;fillColor=#fad9d5;strokeColor=#ae4132;" parent="1" vertex="1">
          <mxGeometry x="740" y="780" width="120" height="60" as="geometry" />
        </mxCell>
        <mxCell id="qUz9v_Lx46Wq200kah7_-19" value="周边依赖" style="text;html=1;align=center;verticalAlign=middle;resizable=0;points=[];autosize=1;strokeColor=none;fillColor=none;" parent="1" vertex="1">
          <mxGeometry x="760" y="280" width="70" height="30" as="geometry" />
        </mxCell>
        <mxCell id="qUz9v_Lx46Wq200kah7_-20" value="自动处理" style="rounded=1;whiteSpace=wrap;html=1;fillColor=#fff2cc;strokeColor=#d6b656;" parent="1" vertex="1">
          <mxGeometry x="550" y="530" width="120" height="60" as="geometry" />
        </mxCell>
        <mxCell id="qUz9v_Lx46Wq200kah7_-23" value="未知问题" style="text;html=1;align=center;verticalAlign=middle;resizable=0;points=[];autosize=1;strokeColor=none;fillColor=none;" parent="1" vertex="1">
          <mxGeometry x="470" y="488" width="70" height="30" as="geometry" />
        </mxCell>
        <mxCell id="qUz9v_Lx46Wq200kah7_-24" value="已知问题" style="text;html=1;align=center;verticalAlign=middle;resizable=0;points=[];autosize=1;strokeColor=none;fillColor=none;" parent="1" vertex="1">
          <mxGeometry x="540" y="488" width="70" height="30" as="geometry" />
        </mxCell>
        <mxCell id="qUz9v_Lx46Wq200kah7_-25" value="稳定性核心建设" style="text;html=1;align=center;verticalAlign=middle;resizable=0;points=[];autosize=1;strokeColor=none;fillColor=none;" parent="1" vertex="1">
          <mxGeometry x="315" y="278" width="110" height="30" as="geometry" />
        </mxCell>
        <mxCell id="qUz9v_Lx46Wq200kah7_-26" value="odin平台" style="rounded=1;whiteSpace=wrap;html=1;fillColor=#d0cee2;strokeColor=#56517e;" parent="1" vertex="1">
          <mxGeometry x="740" y="640" width="120" height="60" as="geometry" />
        </mxCell>
        <mxCell id="R6Zn6SukXZlwrOoBzwCk-1" value="SOP兜底能力" style="rounded=1;whiteSpace=wrap;html=1;fillColor=#e1d5e7;strokeColor=#9673a6;" parent="1" vertex="1">
          <mxGeometry x="360" y="670" width="210" height="60" as="geometry" />
        </mxCell>
        <mxCell id="R6Zn6SukXZlwrOoBzwCk-2" value="根因定位手段" style="rounded=1;whiteSpace=wrap;html=1;fillColor=#f9f7ed;strokeColor=#36393d;" parent="1" vertex="1">
          <mxGeometry x="420" y="810" width="240" height="60" as="geometry" />
        </mxCell>
        <mxCell id="R6Zn6SukXZlwrOoBzwCk-3" value="" style="shape=flexArrow;endArrow=classic;html=1;rounded=0;fillColor=#eeeeee;strokeColor=#36393d;" parent="1" edge="1">
          <mxGeometry width="50" height="50" relative="1" as="geometry">
            <mxPoint x="610" y="600" as="sourcePoint" />
            <mxPoint x="610" y="800" as="targetPoint" />
          </mxGeometry>
        </mxCell>
        <mxCell id="R6Zn6SukXZlwrOoBzwCk-6" value="单机组件版本迭代" style="rounded=1;whiteSpace=wrap;html=1;fillColor=#d5e8d4;strokeColor=#82b366;" parent="1" vertex="1">
          <mxGeometry x="70" y="810" width="244" height="60" as="geometry" />
        </mxCell>
        <mxCell id="R6Zn6SukXZlwrOoBzwCk-7" value="" style="shape=flexArrow;endArrow=classic;html=1;rounded=0;fillColor=#eeeeee;strokeColor=#36393d;" parent="1" edge="1">
          <mxGeometry width="50" height="50" relative="1" as="geometry">
            <mxPoint x="389.45" y="839.55" as="sourcePoint" />
            <mxPoint x="329.99999999999994" y="839.55" as="targetPoint" />
          </mxGeometry>
        </mxCell>
        <mxCell id="R6Zn6SukXZlwrOoBzwCk-9" value="" style="shape=flexArrow;endArrow=classic;html=1;rounded=0;fillColor=#eeeeee;strokeColor=#36393d;" parent="1" edge="1">
          <mxGeometry width="50" height="50" relative="1" as="geometry">
            <mxPoint x="470" y="602" as="sourcePoint" />
            <mxPoint x="470" y="660" as="targetPoint" />
          </mxGeometry>
        </mxCell>
        <mxCell id="R6Zn6SukXZlwrOoBzwCk-10" value="" style="shape=flexArrow;endArrow=classic;html=1;rounded=0;fillColor=#eeeeee;strokeColor=#36393d;" parent="1" edge="1">
          <mxGeometry width="50" height="50" relative="1" as="geometry">
            <mxPoint x="470" y="739" as="sourcePoint" />
            <mxPoint x="470" y="797" as="targetPoint" />
          </mxGeometry>
        </mxCell>
        <mxCell id="R6Zn6SukXZlwrOoBzwCk-11" value="" style="shape=flexArrow;endArrow=classic;html=1;rounded=0;fillColor=#eeeeee;strokeColor=#36393d;" parent="1" edge="1">
          <mxGeometry width="50" height="50" relative="1" as="geometry">
            <mxPoint x="540" y="660" as="sourcePoint" />
            <mxPoint x="580" y="610" as="targetPoint" />
          </mxGeometry>
        </mxCell>
        <mxCell id="R6Zn6SukXZlwrOoBzwCk-12" value="CNI" style="rounded=1;whiteSpace=wrap;html=1;fillColor=#b1ddf0;strokeColor=#10739e;" parent="1" vertex="1">
          <mxGeometry x="740" y="500" width="120" height="60" as="geometry" />
        </mxCell>
      </root>
    </mxGraphModel>
  </diagram>
  <diagram id="0bXo3GBgJyn_usa-3X0x" name="第 2 页">
    <mxGraphModel dx="1434" dy="797" grid="1" gridSize="10" guides="1" tooltips="1" connect="1" arrows="1" fold="1" page="1" pageScale="1" pageWidth="3300" pageHeight="4681" math="0" shadow="0">
      <root>
        <mxCell id="0" />
        <mxCell id="1" parent="0" />
      </root>
    </mxGraphModel>
  </diagram>
</mxfile>
